<svg width="600" height="414" xmlns="http://www.w3.org/2000/svg"> <rect width="100%" height="100%" fill="#FEFEFE" />
<line x1="70" y1="274" x2="530" y2="274" stroke="#9f9f9f" stroke-width="1" />
<rect x="70" y="109" width="460" height="165" fill="#FEFEFE" />
<text text-anchor="middle" x="300.0" y="20" font-family="'Helvetica Neue', Arial, sans-serif" font-weight="bold" font-size="22" fill="#000000">The number of political scientists</text>
<text text-anchor="middle" x="300.0" y="42" font-family="'Helvetica Neue', Arial, sans-serif" font-weight="bold" font-size="22" fill="#000000">in District of Columbia</text>
<text text-anchor="middle" x="300.0" y="64" font-family="'Helvetica Neue', Arial, sans-serif" font-size="14" fill="#000000">correlates with</text>
<text text-anchor="middle" x="300.0" y="90" font-family="'Helvetica Neue', Arial, sans-serif" font-weight="bold" font-size="22" fill="#ba0f27">Customer satisfaction with Whole Foods </text>
<text text-anchor="start" x="23" y="319.3333333333333" font-family="'Helvetica Neue', Arial, sans-serif" font-size="14" fill="#9f9f9f">BLS estimate of political scientists in District of Columbia &#183; Source:</text>
<text text-anchor="start" x="23" y="335.3333333333333" font-family="'Helvetica Neue', Arial, sans-serif" font-size="14" fill="#9f9f9f">Bureau of Larbor Statistics</text>
<text text-anchor="start" x="23" y="358.66666666666663" font-family="'Helvetica Neue', Arial, sans-serif" font-size="14" fill="#9f9f9f">Customer satisfaction with Whole Foods  &#183; Source: American Customer</text>
<text text-anchor="start" x="23" y="374.66666666666663" font-family="'Helvetica Neue', Arial, sans-serif" font-size="14" fill="#9f9f9f">Satisfaction Index</text>
<text text-anchor="start" x="23" y="397.99999999999994" font-family="'Helvetica Neue', Arial, sans-serif" font-size="14" fill="#9f9f9f">2007-2020, r=0.856, r&#178;=0.733, p&lt;0.01  &#183;  tylervigen.com/spurious/correlation/20780</text>
<polyline points="5,314.66666666666663 20,314.66666666666663" style="fill:none;stroke:#000000;stroke-width:2.8" stroke-dasharray="3,1" />
<polygon points="1.7000000000000002,314.66666666666663 5,311.3666666666666 8.3,314.66666666666663 5,317.96666666666664" stroke="#F7F7F7" stroke-width="2.75" fill="#F7F7F7"  />
<polygon points="1.7000000000000002,314.66666666666663 5,311.3666666666666 8.3,314.66666666666663 5,317.96666666666664" stroke="#000000" stroke-width="2.75" fill="#000000"  />
<polyline points="5,353.99999999999994 20,353.99999999999994" style="fill:none;stroke:#ba0f27;stroke-width:2.8" />
<circle cx="5" cy="353.99999999999994" r="2.75" stroke="#F7F7F7" stroke-width="2.75" fill="#F7F7F7" />
<circle cx="5" cy="353.99999999999994" r="2.75" stroke="#ba0f27" stroke-width="2.75" fill="#ba0f27"  />
<text x="5" y="196.5" transform="rotate(270 5 191.5)" text-anchor="middle" fill="#000000" font-family="'Helvetica Neue', Arial, sans-serif" font-size="14" dominant-baseline="central">Political Scientists</text>
<text x="191.5" y="-389" transform="rotate(90 100 100)" text-anchor="middle" fill="#ba0f27" font-family="'Helvetica Neue', Arial, sans-serif" font-size="14" dominant-baseline="central">Consumer Satisfaction</text>
<line x1="71" y1="116.75" x2="528" y2="116.75" stroke="#F3F3F3" stroke-width="1" fill="#FEFEFE" />
<text text-anchor="end" x="62" y="121.41666666666667" font-family="'Helvetica Neue', Arial, sans-serif" font-size="12" fill="#000000">3.8K</text>
<text text-anchor="start" x="538" y="121.41666666666667" font-family="'Helvetica Neue', Arial, sans-serif" font-size="12" fill="#ba0f27">81.0</text>
<line x1="71" y1="154.125" x2="528" y2="154.125" stroke="#F3F3F3" stroke-width="1" fill="#FEFEFE" />
<text text-anchor="end" x="62" y="158.79166666666666" font-family="'Helvetica Neue', Arial, sans-serif" font-size="12">3.2K</text>
<text text-anchor="start" x="538" y="158.79166666666666" font-family="'Helvetica Neue', Arial, sans-serif" font-size="12" fill="#ba0f27">79.0</text>
<line x1="71" y1="191.5" x2="528" y2="191.5" stroke="#F3F3F3" stroke-width="1" fill="#FEFEFE" />
<text text-anchor="end" x="62" y="196.16666666666666" font-family="'Helvetica Neue', Arial, sans-serif" font-size="12">2.6K</text>
<text text-anchor="start" x="538" y="196.16666666666666" font-family="'Helvetica Neue', Arial, sans-serif" font-size="12" fill="#ba0f27">77.0</text>
<line x1="71" y1="228.875" x2="528" y2="228.875" stroke="#F3F3F3" stroke-width="1" fill="#FEFEFE" />
<text text-anchor="end" x="62" y="233.54166666666666" font-family="'Helvetica Neue', Arial, sans-serif" font-size="12">2.0K</text>
<text text-anchor="start" x="538" y="233.54166666666666" font-family="'Helvetica Neue', Arial, sans-serif" font-size="12" fill="#ba0f27">75.0</text>
<line x1="71" y1="266.25" x2="528" y2="266.25" stroke="#F3F3F3" stroke-width="1" fill="#FEFEFE" />
<text text-anchor="end" x="62" y="270.9166666666667" font-family="'Helvetica Neue', Arial, sans-serif" font-size="12">1.3K</text>
<text text-anchor="start" x="538" y="270.9166666666667" font-family="'Helvetica Neue', Arial, sans-serif" font-size="12" fill="#ba0f27">73.0</text>
<polyline points="77.75,274 77.75,280" style="fill:none;stroke:#000000;stroke-width:1" />
<polyline points="146.1346153846154,274 146.1346153846154,280" style="fill:none;stroke:#000000;stroke-width:1" />
<polyline points="214.51923076923077,274 214.51923076923077,280" style="fill:none;stroke:#000000;stroke-width:1" />
<polyline points="282.9038461538462,274 282.9038461538462,280" style="fill:none;stroke:#000000;stroke-width:1" />
<polyline points="351.28846153846155,274 351.28846153846155,280" style="fill:none;stroke:#000000;stroke-width:1" />
<polyline points="419.6730769230769,274 419.6730769230769,280" style="fill:none;stroke:#000000;stroke-width:1" />
<polyline points="488.0576923076923,274 488.0576923076923,280" style="fill:none;stroke:#000000;stroke-width:1" />
<text text-anchor="middle" x="77.75" y="295" font-weight="bold" font-family="'Helvetica Neue', Arial, sans-serif" font-size="14">2007</text>
<text text-anchor="middle" x="146.1346153846154" y="295" font-weight="bold" font-family="'Helvetica Neue', Arial, sans-serif" font-size="14">2009</text>
<text text-anchor="middle" x="214.51923076923077" y="295" font-weight="bold" font-family="'Helvetica Neue', Arial, sans-serif" font-size="14">2011</text>
<text text-anchor="middle" x="282.9038461538462" y="295" font-weight="bold" font-family="'Helvetica Neue', Arial, sans-serif" font-size="14">2013</text>
<text text-anchor="middle" x="351.28846153846155" y="295" font-weight="bold" font-family="'Helvetica Neue', Arial, sans-serif" font-size="14">2015</text>
<text text-anchor="middle" x="419.6730769230769" y="295" font-weight="bold" font-family="'Helvetica Neue', Arial, sans-serif" font-size="14">2017</text>
<text text-anchor="middle" x="488.0576923076923" y="295" font-weight="bold" font-family="'Helvetica Neue', Arial, sans-serif" font-size="14">2019</text>
<polyline points="77.75,266.25 111.9423076923077,228.875" style="fill:none;stroke:#ba0f27;stroke-width:2.8"  />
<polyline points="111.9423076923077,228.875 146.1346153846154,210.1875" style="fill:none;stroke:#ba0f27;stroke-width:2.8"  />
<polyline points="146.1346153846154,210.1875 180.3269230769231,154.125" style="fill:none;stroke:#ba0f27;stroke-width:2.8"  />
<polyline points="180.3269230769231,154.125 214.51923076923077,135.4375" style="fill:none;stroke:#ba0f27;stroke-width:2.8"  />
<polyline points="214.51923076923077,135.4375 248.71153846153845,135.4375" style="fill:none;stroke:#ba0f27;stroke-width:2.8"  />
<polyline points="248.71153846153845,135.4375 282.9038461538462,172.8125" style="fill:none;stroke:#ba0f27;stroke-width:2.8"  />
<polyline points="282.9038461538462,172.8125 317.09615384615387,116.75" style="fill:none;stroke:#ba0f27;stroke-width:2.8"  />
<polyline points="317.09615384615387,116.75 351.28846153846155,266.25" style="fill:none;stroke:#ba0f27;stroke-width:2.8"  />
<polyline points="351.28846153846155,266.25 385.4807692307692,116.75" style="fill:none;stroke:#ba0f27;stroke-width:2.8"  />
<polyline points="385.4807692307692,116.75 419.6730769230769,116.75" style="fill:none;stroke:#ba0f27;stroke-width:2.8"  />
<polyline points="419.6730769230769,116.75 453.86538461538464,154.125" style="fill:none;stroke:#ba0f27;stroke-width:2.8"  />
<polyline points="453.86538461538464,154.125 488.0576923076923,154.125" style="fill:none;stroke:#ba0f27;stroke-width:2.8"  />
<polyline points="488.0576923076923,154.125 522.25,191.5" style="fill:none;stroke:#ba0f27;stroke-width:2.8"  />
<circle cx="77.75" cy="266.25" r="2.75" stroke="#F7F7F7" stroke-width="2.75" fill="#F7F7F7" />
<circle cx="77.75" cy="266.25" r="2.75" stroke="#ba0f27" stroke-width="2.75" fill="#ba0f27"  />
<circle cx="111.9423076923077" cy="228.875" r="2.75" stroke="#F7F7F7" stroke-width="2.75" fill="#F7F7F7" />
<circle cx="111.9423076923077" cy="228.875" r="2.75" stroke="#ba0f27" stroke-width="2.75" fill="#ba0f27"  />
<circle cx="146.1346153846154" cy="210.1875" r="2.75" stroke="#F7F7F7" stroke-width="2.75" fill="#F7F7F7" />
<circle cx="146.1346153846154" cy="210.1875" r="2.75" stroke="#ba0f27" stroke-width="2.75" fill="#ba0f27"  />
<circle cx="180.3269230769231" cy="154.125" r="2.75" stroke="#F7F7F7" stroke-width="2.75" fill="#F7F7F7" />
<circle cx="180.3269230769231" cy="154.125" r="2.75" stroke="#ba0f27" stroke-width="2.75" fill="#ba0f27"  />
<circle cx="214.51923076923077" cy="135.4375" r="2.75" stroke="#F7F7F7" stroke-width="2.75" fill="#F7F7F7" />
<circle cx="214.51923076923077" cy="135.4375" r="2.75" stroke="#ba0f27" stroke-width="2.75" fill="#ba0f27"  />
<circle cx="248.71153846153845" cy="135.4375" r="2.75" stroke="#F7F7F7" stroke-width="2.75" fill="#F7F7F7" />
<circle cx="248.71153846153845" cy="135.4375" r="2.75" stroke="#ba0f27" stroke-width="2.75" fill="#ba0f27"  />
<circle cx="282.9038461538462" cy="172.8125" r="2.75" stroke="#F7F7F7" stroke-width="2.75" fill="#F7F7F7" />
<circle cx="282.9038461538462" cy="172.8125" r="2.75" stroke="#ba0f27" stroke-width="2.75" fill="#ba0f27"  />
<circle cx="317.09615384615387" cy="116.75" r="2.75" stroke="#F7F7F7" stroke-width="2.75" fill="#F7F7F7" />
<circle cx="317.09615384615387" cy="116.75" r="2.75" stroke="#ba0f27" stroke-width="2.75" fill="#ba0f27"  />
<circle cx="351.28846153846155" cy="266.25" r="2.75" stroke="#F7F7F7" stroke-width="2.75" fill="#F7F7F7" />
<circle cx="351.28846153846155" cy="266.25" r="2.75" stroke="#ba0f27" stroke-width="2.75" fill="#ba0f27"  />
<circle cx="385.4807692307692" cy="116.75" r="2.75" stroke="#F7F7F7" stroke-width="2.75" fill="#F7F7F7" />
<circle cx="385.4807692307692" cy="116.75" r="2.75" stroke="#ba0f27" stroke-width="2.75" fill="#ba0f27"  />
<circle cx="419.6730769230769" cy="116.75" r="2.75" stroke="#F7F7F7" stroke-width="2.75" fill="#F7F7F7" />
<circle cx="419.6730769230769" cy="116.75" r="2.75" stroke="#ba0f27" stroke-width="2.75" fill="#ba0f27"  />
<circle cx="453.86538461538464" cy="154.125" r="2.75" stroke="#F7F7F7" stroke-width="2.75" fill="#F7F7F7" />
<circle cx="453.86538461538464" cy="154.125" r="2.75" stroke="#ba0f27" stroke-width="2.75" fill="#ba0f27"  />
<circle cx="488.0576923076923" cy="154.125" r="2.75" stroke="#F7F7F7" stroke-width="2.75" fill="#F7F7F7" />
<circle cx="488.0576923076923" cy="154.125" r="2.75" stroke="#ba0f27" stroke-width="2.75" fill="#ba0f27"  />
<circle cx="522.25" cy="191.5" r="2.75" stroke="#F7F7F7" stroke-width="2.75" fill="#F7F7F7" />
<circle cx="522.25" cy="191.5" r="2.75" stroke="#ba0f27" stroke-width="2.75" fill="#ba0f27"  />
<polyline points="77.75,203.39897959183673 111.9423076923077,216.8234693877551" style="fill:none;stroke:#000000;stroke-width:2.8" stroke-dasharray="3,1"  />
<polyline points="111.9423076923077,216.8234693877551 146.1346153846154,213.16224489795917" style="fill:none;stroke:#000000;stroke-width:2.8" stroke-dasharray="3,1"  />
<polyline points="146.1346153846154,213.16224489795917 180.3269230769231,185.09285714285716" style="fill:none;stroke:#000000;stroke-width:2.8" stroke-dasharray="3,1"  />
<polyline points="180.3269230769231,185.09285714285716 214.51923076923077,157.63367346938776" style="fill:none;stroke:#000000;stroke-width:2.8" stroke-dasharray="3,1"  />
<polyline points="214.51923076923077,157.63367346938776 248.71153846153845,135.05612244897958" style="fill:none;stroke:#000000;stroke-width:2.8" stroke-dasharray="3,1"  />
<polyline points="248.71153846153845,135.05612244897958 282.9038461538462,142.37857142857143" style="fill:none;stroke:#000000;stroke-width:2.8" stroke-dasharray="3,1"  />
<polyline points="282.9038461538462,142.37857142857143 317.09615384615387,149.70102040816326" style="fill:none;stroke:#000000;stroke-width:2.8" stroke-dasharray="3,1"  />
<polyline points="317.09615384615387,149.70102040816326 351.28846153846155,266.25" style="fill:none;stroke:#000000;stroke-width:2.8" stroke-dasharray="3,1"  />
<polyline points="351.28846153846155,266.25 385.4807692307692,116.75" style="fill:none;stroke:#000000;stroke-width:2.8" stroke-dasharray="3,1"  />
<polyline points="385.4807692307692,116.75 419.6730769230769,124.07244897959184" style="fill:none;stroke:#000000;stroke-width:2.8" stroke-dasharray="3,1"  />
<polyline points="419.6730769230769,124.07244897959184 453.86538461538464,151.53163265306122" style="fill:none;stroke:#000000;stroke-width:2.8" stroke-dasharray="3,1"  />
<polyline points="453.86538461538464,151.53163265306122 488.0576923076923,155.19285714285715" style="fill:none;stroke:#000000;stroke-width:2.8" stroke-dasharray="3,1"  />
<polyline points="488.0576923076923,155.19285714285715 522.25,144.81938775510204" style="fill:none;stroke:#000000;stroke-width:2.8" stroke-dasharray="3,1"  />
<polygon points="74.45,203.39897959183673 77.75,200.09897959183672 81.05,203.39897959183673 77.75,206.69897959183675" stroke="#F7F7F7" stroke-width="2.75" fill="#F7F7F7"  />
<polygon points="74.45,203.39897959183673 77.75,200.09897959183672 81.05,203.39897959183673 77.75,206.69897959183675" stroke="#000000" stroke-width="2.75" fill="#000000"  />
<polygon points="108.6423076923077,216.8234693877551 111.9423076923077,213.52346938775509 115.24230769230769,216.8234693877551 111.9423076923077,220.1234693877551" stroke="#F7F7F7" stroke-width="2.75" fill="#F7F7F7"  />
<polygon points="108.6423076923077,216.8234693877551 111.9423076923077,213.52346938775509 115.24230769230769,216.8234693877551 111.9423076923077,220.1234693877551" stroke="#000000" stroke-width="2.75" fill="#000000"  />
<polygon points="142.83461538461538,213.16224489795917 146.1346153846154,209.86224489795916 149.4346153846154,213.16224489795917 146.1346153846154,216.46224489795918" stroke="#F7F7F7" stroke-width="2.75" fill="#F7F7F7"  />
<polygon points="142.83461538461538,213.16224489795917 146.1346153846154,209.86224489795916 149.4346153846154,213.16224489795917 146.1346153846154,216.46224489795918" stroke="#000000" stroke-width="2.75" fill="#000000"  />
<polygon points="177.02692307692308,185.09285714285716 180.3269230769231,181.79285714285714 183.6269230769231,185.09285714285716 180.3269230769231,188.39285714285717" stroke="#F7F7F7" stroke-width="2.75" fill="#F7F7F7"  />
<polygon points="177.02692307692308,185.09285714285716 180.3269230769231,181.79285714285714 183.6269230769231,185.09285714285716 180.3269230769231,188.39285714285717" stroke="#000000" stroke-width="2.75" fill="#000000"  />
<polygon points="211.21923076923076,157.63367346938776 214.51923076923077,154.33367346938775 217.81923076923078,157.63367346938776 214.51923076923077,160.93367346938777" stroke="#F7F7F7" stroke-width="2.75" fill="#F7F7F7"  />
<polygon points="211.21923076923076,157.63367346938776 214.51923076923077,154.33367346938775 217.81923076923078,157.63367346938776 214.51923076923077,160.93367346938777" stroke="#000000" stroke-width="2.75" fill="#000000"  />
<polygon points="245.41153846153844,135.05612244897958 248.71153846153845,131.75612244897957 252.01153846153846,135.05612244897958 248.71153846153845,138.3561224489796" stroke="#F7F7F7" stroke-width="2.75" fill="#F7F7F7"  />
<polygon points="245.41153846153844,135.05612244897958 248.71153846153845,131.75612244897957 252.01153846153846,135.05612244897958 248.71153846153845,138.3561224489796" stroke="#000000" stroke-width="2.75" fill="#000000"  />
<polygon points="279.6038461538462,142.37857142857143 282.9038461538462,139.07857142857142 286.2038461538462,142.37857142857143 282.9038461538462,145.67857142857144" stroke="#F7F7F7" stroke-width="2.75" fill="#F7F7F7"  />
<polygon points="279.6038461538462,142.37857142857143 282.9038461538462,139.07857142857142 286.2038461538462,142.37857142857143 282.9038461538462,145.67857142857144" stroke="#000000" stroke-width="2.75" fill="#000000"  />
<polygon points="313.79615384615386,149.70102040816326 317.09615384615387,146.40102040816325 320.3961538461539,149.70102040816326 317.09615384615387,153.00102040816327" stroke="#F7F7F7" stroke-width="2.75" fill="#F7F7F7"  />
<polygon points="313.79615384615386,149.70102040816326 317.09615384615387,146.40102040816325 320.3961538461539,149.70102040816326 317.09615384615387,153.00102040816327" stroke="#000000" stroke-width="2.75" fill="#000000"  />
<polygon points="347.98846153846154,266.25 351.28846153846155,262.95 354.58846153846156,266.25 351.28846153846155,269.55" stroke="#F7F7F7" stroke-width="2.75" fill="#F7F7F7"  />
<polygon points="347.98846153846154,266.25 351.28846153846155,262.95 354.58846153846156,266.25 351.28846153846155,269.55" stroke="#000000" stroke-width="2.75" fill="#000000"  />
<polygon points="382.1807692307692,116.75 385.4807692307692,113.45 388.78076923076924,116.75 385.4807692307692,120.05" stroke="#F7F7F7" stroke-width="2.75" fill="#F7F7F7"  />
<polygon points="382.1807692307692,116.75 385.4807692307692,113.45 388.78076923076924,116.75 385.4807692307692,120.05" stroke="#000000" stroke-width="2.75" fill="#000000"  />
<polygon points="416.3730769230769,124.07244897959184 419.6730769230769,120.77244897959184 422.9730769230769,124.07244897959184 419.6730769230769,127.37244897959184" stroke="#F7F7F7" stroke-width="2.75" fill="#F7F7F7"  />
<polygon points="416.3730769230769,124.07244897959184 419.6730769230769,120.77244897959184 422.9730769230769,124.07244897959184 419.6730769230769,127.37244897959184" stroke="#000000" stroke-width="2.75" fill="#000000"  />
<polygon points="450.56538461538463,151.53163265306122 453.86538461538464,148.2316326530612 457.16538461538465,151.53163265306122 453.86538461538464,154.83163265306123" stroke="#F7F7F7" stroke-width="2.75" fill="#F7F7F7"  />
<polygon points="450.56538461538463,151.53163265306122 453.86538461538464,148.2316326530612 457.16538461538465,151.53163265306122 453.86538461538464,154.83163265306123" stroke="#000000" stroke-width="2.75" fill="#000000"  />
<polygon points="484.7576923076923,155.19285714285715 488.0576923076923,151.89285714285714 491.35769230769233,155.19285714285715 488.0576923076923,158.49285714285716" stroke="#F7F7F7" stroke-width="2.75" fill="#F7F7F7"  />
<polygon points="484.7576923076923,155.19285714285715 488.0576923076923,151.89285714285714 491.35769230769233,155.19285714285715 488.0576923076923,158.49285714285716" stroke="#000000" stroke-width="2.75" fill="#000000"  />
<polygon points="518.95,144.81938775510204 522.25,141.51938775510203 525.55,144.81938775510204 522.25,148.11938775510205" stroke="#F7F7F7" stroke-width="2.75" fill="#F7F7F7"  />
<polygon points="518.95,144.81938775510204 522.25,141.51938775510203 525.55,144.81938775510204 522.25,148.11938775510205" stroke="#000000" stroke-width="2.75" fill="#000000"  />
</svg>